<svg xmlns="http://www.w3.org/2000/svg" version="1.1" xmlns:xlink="http://www.w3.org/1999/xlink" xmlns:svgjs="http://svgjs.com/svgjs" width="400" height="410.36269430051817"><svg id="SvgjsSvg1002" xmlns="http://www.w3.org/2000/svg" xmlns:xlink="http://www.w3.org/1999/xlink" width="400" height="410.36269430051817" viewBox="0, 0, 400,410.36269430051817"><g id="SvgjsG1001"><path id="SvgjsPath1000" d="M174.093 1.063 C 48.444 18.383,-30.471 149.051,10.454 272.021 C 45.158 376.301,154.796 433.780,258.353 401.986 C 366.190 368.877,426.161 248.361,389.546 138.342 C 366.566 69.292,310.450 18.822,239.589 3.473 C 226.162 0.564,187.921 -0.843,174.093 1.063 M253.466 145.780 C 259.374 166.103,252.185 176.853,221.376 193.765 C 210.750 199.598,201.869 204.673,201.640 205.042 C 201.412 205.411,210.155 210.607,221.068 216.587 C 251.834 233.447,259.914 245.577,253.414 265.146 C 251.138 271.999,253.046 272.530,225.033 257.254 C 198.538 242.805,193.693 239.258,189.084 230.938 L 186.010 225.389 186.010 205.181 L 186.010 184.974 188.975 179.626 C 193.640 171.208,196.859 168.839,223.843 153.961 C 253.350 137.693,251.281 138.264,253.466 145.780 M159.277 146.695 C 175.200 154.469,177.519 161.184,177.998 200.905 L 178.377 232.380 173.549 231.656 C 149.831 228.100,144.041 216.329,144.041 171.662 L 144.041 142.723 148.964 143.393 C 151.671 143.762,156.312 145.248,159.277 146.695 " stroke="none" fill="#000000" fill-rule="evenodd"></path></g></svg><style>@media (prefers-color-scheme: light) { :root { filter: none; } }
</style></svg>