<svg id="svg" version="1.1" xmlns="http://www.w3.org/2000/svg" xmlns:xlink="http://www.w3.org/1999/xlink" width="400" height="240" viewBox="0, 0, 400,240"><g id="svgg"><path id="path0" d="M4.800 128.170 C 4.800 145.090,5.050 158.633,5.355 158.267 C 5.660 157.900,9.563 153.516,14.028 148.523 L 22.146 139.447 31.893 151.323 C 41.378 162.879,41.835 163.200,48.820 163.200 C 58.007 163.200,58.213 163.826,43.189 146.096 L 30.378 130.978 43.189 115.310 C 58.196 96.956,57.987 97.600,48.942 97.600 C 41.958 97.600,41.759 97.756,30.142 112.338 L 18.400 127.077 17.600 112.738 L 16.800 98.400 10.800 97.903 L 4.800 97.407 4.800 128.170 M113.277 98.456 C 112.189 99.545,136.083 161.600,137.590 161.600 C 138.207 161.600,141.799 153.500,145.574 143.600 C 149.348 133.700,153.768 122.180,155.395 118.000 L 158.353 110.400 152.152 110.400 C 145.963 110.400,145.944 110.421,142.280 120.800 C 138.356 131.915,136.871 133.321,135.103 127.600 C 126.592 100.076,120.197 91.536,113.277 98.456 M227.912 99.293 C 210.418 104.436,210.138 129.802,227.523 134.474 C 240.365 137.924,241.600 138.761,241.600 144.005 C 241.600 147.732,240.658 149.237,237.600 150.400 C 234.574 151.550,233.600 153.077,233.600 156.666 C 233.600 162.819,235.467 163.806,241.930 161.072 C 261.288 152.881,257.169 128.439,235.844 124.956 C 228.841 123.813,225.271 119.234,227.301 114.000 C 229.219 109.054,239.867 108.746,241.136 113.600 C 242.112 117.331,254.405 118.444,254.394 114.800 C 254.363 104.547,239.549 95.872,227.912 99.293 M257.067 98.667 C 256.480 99.253,256.000 101.773,256.000 104.267 L 256.000 108.800 275.200 108.800 L 294.400 108.800 294.400 103.200 L 294.400 97.600 276.267 97.600 C 266.293 97.600,257.653 98.080,257.067 98.667 M297.600 103.809 L 297.600 110.400 310.880 110.400 C 324.876 110.400,328.000 111.714,328.000 117.600 C 328.000 123.486,324.876 124.800,310.880 124.800 L 297.600 124.800 297.600 144.097 L 297.600 163.393 303.600 162.897 L 309.600 162.400 310.065 149.200 C 310.714 130.751,314.023 130.853,322.588 149.585 C 328.770 163.105,328.829 163.171,334.800 163.185 C 342.129 163.203,342.132 163.100,335.229 147.953 L 329.659 135.730 335.229 130.476 C 350.859 115.736,339.316 99.293,312.400 97.954 L 297.600 97.218 297.600 103.809 M82.083 102.000 C 81.524 103.540,76.146 117.541,70.133 133.114 C 57.228 166.535,57.745 163.200,65.468 163.200 L 71.735 163.200 77.634 145.499 C 80.878 135.764,83.991 128.258,84.552 128.819 C 85.114 129.381,88.184 137.166,91.376 146.120 L 97.178 162.400 102.989 162.897 C 110.590 163.546,110.774 164.611,97.200 129.379 C 85.713 99.565,84.057 96.565,82.083 102.000 M185.064 100.372 C 183.415 103.042,161.600 160.121,161.600 161.768 C 161.600 162.668,164.280 163.171,167.600 162.897 L 173.600 162.400 179.200 146.129 C 182.280 137.181,185.226 129.435,185.746 128.916 C 186.267 128.398,189.507 135.720,192.946 145.187 L 199.200 162.400 205.200 162.897 C 212.774 163.523,213.176 165.886,199.798 131.200 C 188.143 100.982,186.636 97.830,185.064 100.372 M357.104 129.200 C 343.591 164.311,343.718 163.553,351.466 162.897 L 357.332 162.400 362.657 146.489 C 369.697 125.451,369.512 125.462,376.604 145.658 L 382.764 163.200 389.153 163.200 C 394.568 163.200,395.384 162.773,394.501 160.400 C 385.875 137.197,370.462 99.200,369.676 99.200 C 369.112 99.200,363.454 112.700,357.104 129.200 M269.152 142.000 L 269.600 162.400 275.600 162.897 L 281.600 163.393 281.600 142.497 L 281.600 121.600 275.152 121.600 L 268.704 121.600 269.152 142.000 " stroke="none" fill="#000000" fill-rule="evenodd"></path></g></svg>