<?xml version="1.0" encoding="UTF-8"?>
<svg version="1.1" xmlns="http://www.w3.org/2000/svg" width="250" height="150">
<path d="M0 0 C82.5 0 165 0 250 0 C250 49.5 250 99 250 150 C167.5 150 85 150 0 150 C0 100.5 0 51 0 0 Z " fill="#FEFEFE" transform="translate(0,0)"/>
<path d="M0 0 C2.6881249 -0.08164159 5.373723 -0.14079668 8.0625 -0.1875 C8.81466797 -0.21263672 9.56683594 -0.23777344 10.34179688 -0.26367188 C16.38205292 -0.34211676 21.16685345 0.62381257 25.9375 4.625 C27.61508254 8.37489038 27.54052142 11.96410677 27 16 C25.37599816 19.63467079 24.33886956 20.77408696 21 23 C22.3876448 27.50984561 24.181502 31.69375788 26.1953125 35.94921875 C27 38 27 38 27 41 C24.36 41 21.72 41 19 41 C18.54109375 39.92878906 18.0821875 38.85757813 17.609375 37.75390625 C16.99035761 36.35642761 16.3705233 34.95931062 15.75 33.5625 C15.44964844 32.85544922 15.14929688 32.14839844 14.83984375 31.41992188 C13.84053776 29.11225978 13.84053776 29.11225978 12 26 C10.68 25.67 9.36 25.34 8 25 C8 30.28 8 35.56 8 41 C5.36 41 2.72 41 0 41 C0 33.08 0 25.16 0 17 C7.875 16.5625 7.875 16.5625 10.35107422 16.43188477 C14.30464416 16.26408457 14.30464416 16.26408457 18 15 C18.042721 13.33388095 18.04063832 11.66617115 18 10 C15.88074396 7.88074396 11.3803907 8.58168983 8.4375 8.4375 C7.63119141 8.39431641 6.82488281 8.35113281 5.99414062 8.30664062 C3.99631195 8.20024738 1.9981793 8.09959112 0 8 C0 5.36 0 2.72 0 0 Z " fill="#0C0C0C" transform="translate(186,61)"/>
<path d="M0 0 C2.64 0 5.28 0 8 0 C8.33 5.61 8.66 11.22 9 17 C9.90621094 15.7728125 10.81242188 14.545625 11.74609375 13.28125 C12.97509249 11.68636614 14.20564358 10.09267767 15.4375 8.5 C16.02982422 7.68917969 16.62214844 6.87835938 17.23242188 6.04296875 C21.77423967 0.26247338 21.77423967 0.26247338 25.48095703 -0.53125 C27.72037357 -0.53125 29.79658653 -0.38666352 32 0 C30.72909588 2.70693732 29.3499031 4.99084124 27.46875 7.3125 C26.74751953 8.21355469 26.74751953 8.21355469 26.01171875 9.1328125 C25.00390625 10.37760417 23.99609375 11.62239583 22.98828125 12.8671875 C19.55519646 17.15262888 19.55519646 17.15262888 17 22 C17.74765625 22.80824219 18.4953125 23.61648437 19.265625 24.44921875 C20.26050237 25.52856684 21.25528923 26.60799837 22.25 27.6875 C22.74113281 28.21794922 23.23226563 28.74839844 23.73828125 29.29492188 C32 38.27265625 32 38.27265625 32 41 C28.38715578 41.8993676 25.58984086 42.07210112 22 41 C17.88393593 37.39084718 14.9467566 32.56433788 12 28 C8.55426177 29.44523237 6.67928465 31.2602151 4.3125 34.125 C3.226472 35.43195447 2.12692599 36.72814127 1 38 C0.67 38 0.34 38 0 38 C0 25.46 0 12.92 0 0 Z " fill="#0A0A0A" transform="translate(3,61)"/>
<path d="M0 0 C3.46735511 2.13943187 5.62690929 4.13038074 7 8 C7 8.99 7 9.98 7 11 C4.36 11 1.72 11 -1 11 C-1.33 10.01 -1.66 9.02 -2 8 C-4.31 8 -6.62 8 -9 8 C-9.04254356 9.99954746 -9.04080783 12.00041636 -9 14 C-7.48958034 15.51041966 -5.83626148 15.40459247 -3.75 15.75 C0.79642819 16.70561866 3.05084838 18.31356047 6 22 C7.53214888 25.06429776 7.22938548 27.6165642 7 31 C5.09721519 35.54554148 2.270841 37.64667945 -2 40 C-3.32 40 -4.64 40 -6 40 C-6 37.36 -6 34.72 -6 32 C-4.02 31.505 -4.02 31.505 -2 31 C-2 29.02 -2 27.04 -2 25 C-2.66386719 24.84144531 -3.32773438 24.68289062 -4.01171875 24.51953125 C-9.64258503 23.03166731 -13.24957284 21.71827933 -17 17 C-18.61622481 13.76755038 -18.58454308 10.49426864 -18 7 C-13.8179478 -0.66151963 -7.9274065 -1.96769554 0 0 Z " fill="#0C0C0C" transform="translate(152,62)"/>
<path d="M0 0 C0.66 0 1.32 0 2 0 C3.49612551 3.64265646 4.98930053 7.28650805 6.47998047 10.93139648 C7.23126117 12.76672236 7.98474325 14.60114663 8.73828125 16.43554688 C17 36.64921875 17 36.64921875 17 40 C14.36 40 11.72 40 9 40 C7.82538445 36.89878289 6.66169544 33.79357759 5.5 30.6875 C5.16613281 29.80642578 4.83226562 28.92535156 4.48828125 28.01757812 C4.17246094 27.17001953 3.85664063 26.32246094 3.53125 25.44921875 C3.09135742 24.27879028 3.09135742 24.27879028 2.64257812 23.0847168 C2 21 2 21 2 18 C1.34 18 0.68 18 0 18 C-0.37125 19.8253125 -0.37125 19.8253125 -0.75 21.6875 C-2.12037065 27.90381903 -4.0701587 33.93879942 -6 40 C-8.97 40 -11.94 40 -15 40 C-12.29577539 31.50778587 -9.04929562 23.23646589 -5.8125 14.9375 C-5.24784991 13.4851026 -4.6833952 12.03262923 -4.11914062 10.58007812 C-2.74834462 7.05250551 -1.3749091 3.52597141 0 0 Z " fill="#0C0C0C" transform="translate(230,62)"/>
<path d="M0 0 C0.99 0.33 1.98 0.66 3 1 C4.26261559 3.61776106 5.33532389 6.15538767 6.35546875 8.8671875 C6.66196854 9.65771515 6.96846832 10.4482428 7.28425598 11.26272583 C7.93077798 12.93692794 8.57180318 14.61326147 9.20776367 16.29150391 C10.18261 18.86210541 11.17470963 21.42550505 12.16992188 23.98828125 C12.79530053 25.61418765 13.41968297 27.24047766 14.04296875 28.8671875 C14.3397905 29.63602264 14.63661224 30.40485779 14.94242859 31.19699097 C16.09879341 34.26213991 17 36.69541883 17 40 C14.36 40 11.72 40 9 40 C8.79318604 39.39937744 8.58637207 38.79875488 8.37329102 38.17993164 C7.43935884 35.47307571 6.50099105 32.76777852 5.5625 30.0625 C5.23701172 29.11697266 4.91152344 28.17144531 4.57617188 27.19726562 C4.26357422 26.29814453 3.95097656 25.39902344 3.62890625 24.47265625 C3.34088135 23.64000244 3.05285645 22.80734863 2.75610352 21.94946289 C2.16119007 20.02666909 2.16119007 20.02666909 1 19 C-1.31 25.93 -3.62 32.86 -6 40 C-8.64 40 -11.28 40 -14 40 C-13.36424474 34.97581521 -11.89113714 30.65470895 -10.05859375 25.9765625 C-9.77146011 25.23038666 -9.48432648 24.48421082 -9.18849182 23.71542358 C-8.27680874 21.34985577 -7.35729089 18.9874255 -6.4375 16.625 C-5.81523393 15.01452424 -5.19348364 13.40384908 -4.57226562 11.79296875 C-3.05413629 7.85964658 -1.52897647 3.92911764 0 0 Z " fill="#0B0B0B" transform="translate(115,62)"/>
<path d="M0 0 C3.40826203 2.71652714 4.6102139 6.43211833 6.13671875 10.37109375 C6.42102249 11.0898317 6.70532623 11.80856964 6.99824524 12.54908752 C7.59617144 14.06645687 8.1901782 15.58537579 8.78051758 17.10571289 C9.68449537 19.42977531 10.60397195 21.74725852 11.52539062 24.06445312 C12.10510539 25.54129853 12.68391223 27.01850071 13.26171875 28.49609375 C13.53666672 29.18787216 13.81161469 29.87965057 14.09489441 30.59239197 C15.40498673 33.99431461 16 36.29571614 16 40 C13.69 40 11.38 40 9 40 C6.16838531 33.0565193 3.52372657 26.06106477 1 19 C-1.96415819 25.9241798 -4.72564796 32.81783567 -7 40 C-9.64 40 -12.28 40 -15 40 C-14.28314706 35.48118774 -12.7342208 31.35681315 -11.09375 27.109375 C-10.66660706 25.99154633 -10.66660706 25.99154633 -10.23083496 24.85113525 C-9.63089869 23.28381305 -9.029013 21.71723581 -8.42529297 20.15136719 C-7.49848269 17.74606219 -6.57888116 15.33809076 -5.66015625 12.9296875 C-5.07594479 11.40608737 -4.49132376 9.88264421 -3.90625 8.359375 C-3.63018921 7.63651306 -3.35412842 6.91365112 -3.06970215 6.16888428 C-1.11550032 1.11550032 -1.11550032 1.11550032 0 0 Z " fill="#0B0B0B" transform="translate(52,62)"/>
<path d="M0 0 C2.64 0 5.28 0 8 0 C9.34394393 3.32916061 10.6756429 6.66299984 12 10 C12.46212891 11.15822266 12.46212891 11.15822266 12.93359375 12.33984375 C14.11128903 15.36578809 15 17.72330879 15 21 C15.66 21 16.32 21 17 21 C17.12117188 20.39671875 17.24234375 19.7934375 17.3671875 19.171875 C17.53476563 18.37265625 17.70234375 17.5734375 17.875 16.75 C18.03742188 15.96109375 18.19984375 15.1721875 18.3671875 14.359375 C18.99150075 12.03168856 19.84838542 10.10968048 21 8 C23.64 8 26.28 8 29 8 C25.27641107 18.78784453 21.33383119 29.44204954 17 40 C16.34 40 15.68 40 15 40 C13.02139438 34.947496 11.04597541 29.89376222 9.07348633 24.83886719 C8.40215885 23.119776 7.72996511 21.40102283 7.05688477 19.68261719 C6.08902151 17.21117301 5.12429009 14.73852605 4.16015625 12.265625 C3.85908463 11.49881409 3.558013 10.73200317 3.24781799 9.94195557 C2.967603 9.22151062 2.687388 8.50106567 2.39868164 7.75878906 C2.15219376 7.12813538 1.90570587 6.49748169 1.65174866 5.84771729 C0.97147678 3.91913624 0.46525072 1.99039692 0 0 Z " fill="#0A0A0A" transform="translate(70,61)"/>
<path d="M0 0 C2.64 0 5.28 0 8 0 C8 8.58 8 17.16 8 26 C5.36 26 2.72 26 0 26 C0 17.42 0 8.84 0 0 Z " fill="#111111" transform="translate(168,76)"/>
<path d="M0 0 C7.92 0 15.84 0 24 0 C24 2.31 24 4.62 24 7 C16.08 7 8.16 7 0 7 C0 4.69 0 2.38 0 0 Z " fill="#0E0E0E" transform="translate(160,61)"/>
</svg>
