<svg id="svg" version="1.1" xmlns="http://www.w3.org/2000/svg" xmlns:xlink="http://www.w3.org/1999/xlink" width="400" height="400" viewBox="0, 0, 400,400"><g id="svgg"><path id="path0" d="M30.900 177.065 C 30.292 177.310,30.154 228.157,30.763 227.933 C 30.962 227.860,32.157 226.630,33.418 225.200 C 34.679 223.770,36.901 221.251,38.356 219.602 C 44.606 212.514,44.837 212.310,45.704 213.095 C 46.133 213.482,49.644 217.725,53.508 222.523 C 62.491 233.679,61.258 232.801,67.954 232.794 C 73.877 232.787,74.925 232.534,73.974 231.339 C 73.287 230.476,61.358 216.385,56.117 210.246 C 51.711 205.085,51.763 205.436,54.840 201.688 C 56.181 200.054,59.562 195.900,62.353 192.458 C 76.681 174.784,75.897 176.813,68.400 176.812 C 61.849 176.811,62.424 176.507,57.549 182.540 C 50.346 191.452,41.936 201.780,41.542 202.197 C 40.622 203.169,40.412 200.786,40.406 189.343 C 40.401 178.721,40.325 177.257,39.767 177.043 C 39.018 176.755,31.622 176.774,30.900 177.065 M124.267 177.067 C 123.757 177.576,124.016 178.435,127.048 186.296 C 128.724 190.643,130.958 196.450,132.011 199.200 C 139.717 219.316,144.468 231.428,144.773 231.733 C 145.587 232.547,145.509 232.722,154.008 210.800 C 155.586 206.730,158.213 199.985,159.847 195.811 C 163.450 186.605,163.587 187.200,157.862 187.200 C 152.216 187.200,153.031 186.151,148.536 199.200 C 147.070 203.457,145.518 207.200,145.219 207.200 C 144.838 207.200,144.849 207.229,141.190 197.000 C 133.019 174.157,134.641 176.800,128.790 176.800 C 126.449 176.800,124.413 176.920,124.267 177.067 M248.900 177.065 C 248.543 177.209,248.400 178.514,248.400 181.633 L 248.400 186.000 265.000 186.000 L 281.600 186.000 281.600 181.647 C 281.600 177.470,281.563 177.284,280.700 177.052 C 279.622 176.763,249.618 176.775,248.900 177.065 M284.500 177.065 C 284.140 177.210,284.000 178.588,284.000 182.000 L 284.000 186.733 294.900 186.867 C 308.785 187.037,310.799 187.890,310.799 193.600 C 310.799 199.138,309.323 199.751,295.400 200.000 L 284.200 200.200 284.095 216.174 C 283.975 234.574,283.461 232.785,288.867 232.794 C 294.557 232.803,294.000 234.045,294.000 221.357 L 294.000 210.400 297.300 210.414 L 300.600 210.427 301.989 213.514 C 302.752 215.211,304.478 218.940,305.824 221.800 C 307.170 224.660,308.779 228.134,309.399 229.520 C 310.821 232.697,311.040 232.801,316.274 232.794 C 321.777 232.786,321.998 232.657,320.811 230.138 C 310.086 207.380,310.566 208.773,313.026 207.544 C 324.486 201.821,323.695 183.190,311.800 178.681 C 307.688 177.122,287.343 175.918,284.500 177.065 M98.289 178.272 C 97.716 179.423,96.919 181.438,91.195 196.200 C 86.782 207.579,83.816 215.207,80.412 223.928 C 76.862 233.024,76.800 232.568,81.605 232.721 C 87.305 232.903,87.761 232.756,88.509 230.493 C 88.853 229.452,90.062 225.990,91.196 222.800 C 94.117 214.580,96.315 208.295,97.526 204.700 C 98.100 202.995,98.681 201.600,98.817 201.600 C 99.372 201.600,99.831 202.813,107.809 225.400 C 109.052 228.920,110.267 232.039,110.510 232.332 C 110.968 232.884,120.041 232.895,120.590 232.344 C 120.730 232.203,119.198 227.883,117.184 222.744 C 107.475 197.961,101.093 181.546,100.360 179.475 C 99.575 177.255,98.969 176.903,98.289 178.272 M186.905 177.704 C 186.693 177.977,185.486 180.900,184.222 184.200 C 181.662 190.886,178.684 198.588,174.439 209.500 C 165.134 233.422,165.566 232.148,166.633 232.557 C 167.539 232.905,175.308 232.846,175.873 232.487 C 176.133 232.322,177.078 230.074,177.973 227.493 C 186.176 203.833,187.004 201.600,187.569 201.600 C 187.697 201.600,188.222 202.815,188.735 204.300 C 189.599 206.801,194.451 220.498,197.272 228.400 C 198.840 232.790,198.857 232.801,203.976 232.794 C 209.784 232.785,209.617 233.124,207.053 226.567 C 205.855 223.505,203.581 217.670,202.000 213.600 C 186.982 174.955,187.706 176.675,186.905 177.704 M223.385 178.011 C 205.813 183.584,209.020 207.607,227.600 209.589 C 237.364 210.631,239.682 220.390,230.716 222.709 L 229.400 223.050 229.287 227.782 L 229.174 232.514 231.487 232.297 C 240.592 231.443,246.416 224.624,245.897 215.424 C 245.399 206.594,240.260 201.695,230.000 200.268 C 223.695 199.391,221.755 197.653,222.079 193.172 C 222.638 185.450,234.435 184.208,235.969 191.710 L 236.233 193.000 241.016 193.000 L 245.800 193.000 245.657 191.000 C 244.954 181.165,233.854 174.691,223.385 178.011 M345.305 177.704 C 345.093 177.977,343.886 180.900,342.622 184.200 C 340.062 190.886,337.084 198.588,332.839 209.500 C 323.534 233.422,323.966 232.148,325.033 232.557 C 325.939 232.905,333.708 232.846,334.273 232.487 C 334.533 232.322,335.478 230.074,336.373 227.493 C 344.576 203.833,345.404 201.600,345.969 201.600 C 346.097 201.600,346.622 202.815,347.135 204.300 C 347.999 206.801,352.851 220.498,355.672 228.400 C 357.240 232.790,357.257 232.801,362.376 232.794 C 368.184 232.785,368.017 233.124,365.453 226.567 C 364.255 223.505,361.981 217.670,360.400 213.600 C 345.382 174.955,346.106 176.675,345.305 177.704 M260.267 197.467 C 260.120 197.613,260.000 205.512,260.000 215.020 L 260.000 232.307 260.900 232.548 C 262.904 233.085,269.122 232.821,269.771 232.171 C 270.415 231.528,270.775 199.444,270.157 197.833 C 269.905 197.176,260.891 196.842,260.267 197.467 " stroke="none" fill="#f7f7f7" fill-rule="evenodd"></path><path id="path1" d="M0.000 200.000 L 0.000 400.000 200.000 400.000 L 400.000 400.000 400.000 200.000 L 400.000 0.000 200.000 0.000 L 0.000 0.000 0.000 200.000 M40.745 176.934 C 41.041 177.291,41.223 181.408,41.294 189.389 L 41.400 201.311 47.239 194.155 C 50.451 190.220,54.564 185.155,56.379 182.900 C 58.195 180.644,60.184 178.259,60.800 177.600 L 61.921 176.400 68.060 176.406 C 76.730 176.415,76.583 175.997,70.537 183.456 C 68.371 186.127,65.162 190.087,63.404 192.256 C 61.647 194.425,58.632 198.119,56.704 200.464 C 52.419 205.678,52.351 204.793,57.505 210.828 C 76.593 233.177,76.000 232.407,74.567 232.957 C 74.219 233.091,71.179 233.200,67.812 233.200 C 60.699 233.200,61.470 233.562,57.181 228.200 C 54.615 224.991,47.945 216.745,45.791 214.119 L 44.982 213.133 39.591 219.262 C 32.665 227.136,30.366 229.600,29.942 229.600 C 29.353 229.600,29.510 176.903,30.100 176.665 C 31.307 176.178,40.306 176.405,40.745 176.934 M101.016 179.531 C 102.100 182.220,108.195 197.823,116.656 219.572 C 119.176 226.047,121.183 231.717,121.118 232.172 C 120.993 233.048,111.329 233.673,110.112 232.884 C 109.843 232.710,107.323 226.077,104.512 218.145 C 101.700 210.213,99.247 203.650,99.060 203.561 C 98.873 203.473,96.443 209.880,93.660 217.800 C 90.877 225.720,88.454 232.425,88.276 232.700 C 87.936 233.226,78.703 233.445,77.433 232.957 C 76.363 232.547,76.493 232.170,87.256 204.400 C 99.296 173.333,98.845 174.147,101.016 179.531 M134.474 177.100 C 134.803 177.485,137.194 183.740,139.786 191.000 C 142.379 198.260,144.672 204.650,144.882 205.200 C 145.215 206.068,145.709 204.966,148.640 196.819 C 150.496 191.660,152.236 187.297,152.507 187.125 C 153.407 186.554,163.200 186.735,163.427 187.327 C 163.539 187.617,161.578 193.152,159.071 199.627 C 145.480 234.730,146.280 232.800,145.319 232.800 C 144.132 232.800,144.951 234.725,133.569 205.172 C 122.483 176.390,123.016 177.857,123.342 177.006 C 123.713 176.039,133.639 176.123,134.474 177.100 M190.833 183.056 C 192.091 186.325,196.396 197.370,200.398 207.600 C 209.450 230.736,209.801 231.699,209.484 232.526 C 209.207 233.248,199.588 233.562,198.522 232.884 C 198.259 232.716,195.778 226.194,193.008 218.390 C 190.239 210.585,187.875 203.930,187.756 203.600 C 187.413 202.653,186.918 203.893,181.803 218.535 C 179.202 225.979,176.814 232.329,176.497 232.646 C 175.485 233.657,165.437 233.258,165.286 232.200 C 165.198 231.588,182.209 187.078,185.765 178.614 C 187.243 175.096,188.036 175.791,190.833 183.056 M233.800 176.944 C 241.141 178.905,246.200 184.752,246.468 191.586 C 246.557 193.866,246.184 194.019,240.815 193.901 C 235.694 193.788,236.409 194.184,234.690 190.509 C 232.813 186.496,225.186 186.567,223.226 190.615 C 221.187 194.827,223.726 198.850,228.774 199.406 C 240.374 200.686,246.800 206.713,246.800 216.315 C 246.800 224.353,241.926 230.494,233.836 232.648 C 228.847 233.977,228.400 233.574,228.400 227.749 C 228.400 222.895,228.738 222.000,230.569 222.000 C 232.032 222.000,234.658 219.841,235.203 218.190 C 236.464 214.371,233.076 210.400,228.558 210.400 C 224.379 210.400,218.233 207.787,215.476 204.839 C 203.930 192.492,217.078 172.477,233.800 176.944 M281.767 176.643 C 282.709 177.004,282.709 186.196,281.767 186.557 C 281.419 186.691,273.776 186.800,264.781 186.800 C 245.752 186.800,247.600 187.359,247.600 181.600 C 247.600 175.841,245.752 176.400,264.781 176.400 C 273.776 176.400,281.419 176.509,281.767 176.643 M308.761 177.015 C 323.449 180.478,326.933 200.449,314.111 207.685 C 311.489 209.165,311.289 208.071,316.048 218.299 C 321.906 230.888,322.400 231.983,322.400 232.367 C 322.400 233.505,311.297 233.627,310.313 232.500 C 309.977 232.115,307.525 227.120,304.864 221.400 L 300.026 211.000 297.413 210.882 L 294.800 210.763 294.800 221.502 C 294.800 229.320,294.669 232.371,294.320 232.720 C 293.771 233.269,284.530 233.397,283.695 232.867 C 283.300 232.616,283.214 229.007,283.295 216.174 L 283.400 199.800 294.600 199.600 C 308.864 199.345,310.000 198.903,310.000 193.600 C 310.000 188.333,308.753 187.829,295.400 187.699 C 281.718 187.566,283.200 188.255,283.200 182.026 C 283.200 178.273,283.336 176.812,283.700 176.665 C 285.024 176.130,306.267 176.428,308.761 177.015 M349.233 183.056 C 350.491 186.325,354.796 197.370,358.798 207.600 C 367.850 230.736,368.201 231.699,367.884 232.526 C 367.607 233.248,357.988 233.562,356.922 232.884 C 356.659 232.716,354.178 226.194,351.408 218.390 C 348.639 210.585,346.275 203.930,346.156 203.600 C 345.813 202.653,345.318 203.893,340.203 218.535 C 337.602 225.979,335.214 232.329,334.897 232.646 C 333.885 233.657,323.837 233.258,323.686 232.200 C 323.598 231.588,340.609 187.078,344.165 178.614 C 345.643 175.096,346.436 175.791,349.233 183.056 M270.704 214.554 C 270.779 227.181,270.681 232.261,270.355 232.654 C 269.752 233.381,260.398 233.438,259.680 232.720 C 259.151 232.191,258.954 197.579,259.477 197.056 C 259.630 196.903,262.195 196.828,265.177 196.889 L 270.600 197.000 270.704 214.554 " stroke="none" fill="#040404" fill-rule="evenodd"></path><path id="path2" d="M32.917 176.697 C 34.411 176.774,36.751 176.774,38.117 176.696 C 39.482 176.618,38.260 176.555,35.400 176.555 C 32.540 176.556,31.422 176.620,32.917 176.697 M67.991 176.700 C 75.224 176.842,75.299 176.880,73.361 179.441 C 72.546 180.519,72.272 181.052,72.752 180.626 C 76.698 177.131,75.846 176.390,68.000 176.495 L 61.800 176.578 67.991 176.700 M123.460 176.700 C 123.358 176.865,124.922 176.952,126.937 176.893 C 133.553 176.701,134.287 176.545,128.924 176.472 C 126.022 176.432,123.563 176.535,123.460 176.700 M227.500 176.693 C 228.435 176.777,229.965 176.777,230.900 176.693 C 231.835 176.609,231.070 176.540,229.200 176.540 C 227.330 176.540,226.565 176.609,227.500 176.693 M248.262 176.700 C 248.160 176.865,255.664 177.000,264.938 177.000 L 281.800 177.000 281.800 181.600 L 281.800 186.200 264.938 186.200 C 255.664 186.200,248.160 186.335,248.262 186.500 C 248.482 186.855,280.846 186.911,281.767 186.557 C 282.709 186.196,282.709 177.004,281.767 176.643 C 280.846 176.289,248.482 176.345,248.262 176.700 M289.724 176.699 C 292.983 176.767,298.203 176.766,301.324 176.699 C 304.446 176.631,301.780 176.576,295.400 176.577 C 289.020 176.577,286.466 176.632,289.724 176.699 M59.056 179.600 C 57.789 181.140,56.898 182.392,57.076 182.383 C 57.470 182.362,61.879 176.800,61.502 176.800 C 61.424 176.800,60.323 178.060,59.056 179.600 M223.600 177.200 C 222.776 177.464,222.741 177.526,223.400 177.554 C 223.840 177.573,224.470 177.413,224.800 177.200 C 225.501 176.747,225.014 176.747,223.600 177.200 M233.600 177.182 C 233.930 177.405,234.545 177.591,234.967 177.594 C 235.990 177.602,235.671 177.373,234.200 177.044 C 233.324 176.848,233.162 176.885,233.600 177.182 M308.200 177.200 C 308.640 177.389,309.360 177.538,309.800 177.532 C 310.443 177.523,310.404 177.457,309.600 177.200 C 308.232 176.762,307.181 176.762,308.200 177.200 M40.891 189.276 C 40.841 196.028,40.935 201.630,41.100 201.724 C 41.265 201.818,42.531 200.479,43.914 198.748 C 45.296 197.016,46.339 195.600,46.231 195.600 C 46.123 195.600,44.992 196.891,43.717 198.469 L 41.400 201.337 41.191 189.169 L 40.982 177.000 40.891 189.276 M247.748 181.600 C 247.748 183.910,247.814 184.855,247.895 183.700 C 247.976 182.545,247.976 180.655,247.895 179.500 C 247.814 178.345,247.748 179.290,247.748 181.600 M240.339 180.325 C 241.075 180.984,242.214 182.125,242.870 182.861 L 244.063 184.200 243.224 182.928 C 242.762 182.228,241.623 181.087,240.692 180.391 C 239.002 179.129,239.001 179.129,240.339 180.325 M215.658 182.176 C 214.526 183.373,213.600 184.483,213.600 184.643 C 213.600 184.803,213.656 184.858,213.724 184.767 C 213.792 184.675,214.808 183.565,215.982 182.300 C 217.156 181.035,218.026 180.000,217.916 180.000 C 217.806 180.000,216.790 180.979,215.658 182.176 M70.155 183.481 C 69.307 184.516,68.822 185.234,69.077 185.076 C 69.621 184.740,72.155 181.600,71.882 181.600 C 71.780 181.600,71.003 182.447,70.155 183.481 M55.759 183.700 C 54.007 185.721,53.487 186.400,53.690 186.400 C 53.807 186.400,54.567 185.590,55.379 184.600 C 56.881 182.766,57.179 182.063,55.759 183.700 M319.200 184.040 C 319.200 184.159,319.566 184.964,320.014 185.829 C 320.482 186.732,320.715 186.975,320.560 186.400 C 320.313 185.476,319.200 183.546,319.200 184.040 M244.678 185.795 C 245.044 186.562,245.414 187.119,245.501 187.032 C 245.684 186.849,244.470 184.400,244.196 184.400 C 244.095 184.400,244.312 185.028,244.678 185.795 M64.841 189.882 C 62.994 192.213,61.655 194.013,61.866 193.883 C 62.506 193.487,68.858 185.598,68.517 185.622 C 68.343 185.634,66.689 187.551,64.841 189.882 M51.549 188.900 C 50.600 190.055,49.009 191.979,48.012 193.176 C 47.015 194.373,46.402 195.232,46.648 195.085 C 47.182 194.766,53.734 186.800,53.463 186.800 C 53.359 186.800,52.498 187.745,51.549 188.900 M157.972 187.093 C 161.591 187.184,163.196 187.370,163.311 187.711 C 163.402 187.980,163.457 187.930,163.434 187.600 C 163.397 187.100,162.507 186.997,158.094 186.982 L 152.799 186.964 157.972 187.093 M225.400 187.937 C 224.740 188.340,223.935 189.015,223.612 189.435 C 223.126 190.068,223.195 190.053,224.012 189.350 C 227.081 186.710,232.086 186.950,234.365 189.846 C 234.824 190.430,235.194 190.749,235.187 190.554 C 235.093 187.924,228.364 186.124,225.400 187.937 M289.100 187.499 C 292.015 187.567,296.785 187.567,299.700 187.499 C 302.615 187.431,300.230 187.375,294.400 187.375 C 288.570 187.375,286.185 187.431,289.100 187.499 M320.868 188.200 C 320.862 188.640,321.011 189.360,321.200 189.800 C 321.638 190.819,321.638 189.768,321.200 188.400 C 320.943 187.596,320.877 187.557,320.868 188.200 M245.668 188.400 C 245.688 189.439,246.318 191.146,246.332 190.200 C 246.338 189.760,246.189 189.040,246.000 188.600 C 245.789 188.110,245.661 188.032,245.668 188.400 M307.346 188.602 C 308.805 189.363,309.175 189.368,308.176 188.613 C 307.749 188.290,307.130 188.021,306.800 188.015 C 306.470 188.010,306.716 188.274,307.346 188.602 M211.469 190.356 C 211.321 191.095,211.220 192.083,211.244 192.550 C 211.268 193.018,211.447 192.590,211.642 191.600 C 211.837 190.610,211.938 189.623,211.867 189.406 C 211.796 189.190,211.617 189.617,211.469 190.356 M128.251 191.174 C 128.627 192.639,129.571 194.686,129.555 194.000 C 129.547 193.670,129.194 192.680,128.771 191.800 C 128.348 190.920,128.114 190.638,128.251 191.174 M222.649 191.015 C 222.512 191.373,222.415 191.966,222.434 192.333 C 222.453 192.700,222.627 192.469,222.821 191.820 C 223.198 190.558,223.065 189.933,222.649 191.015 M309.800 193.600 C 309.800 195.098,309.935 196.240,310.100 196.138 C 310.265 196.036,310.400 194.894,310.400 193.600 C 310.400 192.306,310.265 191.164,310.100 191.062 C 309.935 190.960,309.800 192.102,309.800 193.600 M235.216 191.656 C 235.169 193.607,236.321 194.039,241.200 193.901 L 245.800 193.771 241.081 193.686 L 236.361 193.600 235.796 192.300 C 235.486 191.585,235.224 191.295,235.216 191.656 M105.621 191.790 C 105.591 192.351,107.699 197.635,107.880 197.453 C 107.963 197.370,107.494 195.974,106.836 194.351 C 106.179 192.728,105.632 191.576,105.621 191.790 M59.755 196.281 C 58.907 197.316,58.422 198.034,58.677 197.876 C 59.221 197.540,61.755 194.400,61.482 194.400 C 61.380 194.400,60.603 195.247,59.755 196.281 M211.293 195.400 C 211.294 196.060,211.432 197.140,211.600 197.800 C 212.023 199.463,212.042 197.826,211.623 195.800 C 211.345 194.455,211.292 194.391,211.293 195.400 M222.436 194.926 C 222.351 196.644,225.424 199.909,226.301 199.032 C 226.429 198.905,226.337 198.800,226.097 198.800 C 225.241 198.800,223.199 196.711,222.839 195.467 C 222.637 194.770,222.456 194.527,222.436 194.926 M321.000 197.600 C 320.848 198.291,320.807 198.941,320.909 199.042 C 321.011 199.144,321.209 198.653,321.350 197.950 C 321.683 196.283,321.360 195.960,321.000 197.600 M89.477 198.677 C 89.100 199.693,88.858 200.591,88.938 200.672 C 89.019 200.752,89.400 199.993,89.785 198.985 C 90.170 197.976,90.412 197.079,90.323 196.990 C 90.235 196.901,89.854 197.660,89.477 198.677 M259.467 197.067 C 258.951 197.583,259.158 232.198,259.680 232.720 C 260.012 233.052,261.711 233.175,265.180 233.118 L 270.200 233.037 265.000 232.818 L 259.800 232.600 259.800 214.700 C 259.800 204.855,259.785 196.800,259.767 196.800 C 259.748 196.800,259.613 196.920,259.467 197.067 M270.400 214.720 L 270.600 232.600 270.704 215.024 C 270.762 205.358,270.672 197.311,270.504 197.144 C 270.337 196.977,270.290 204.886,270.400 214.720 M307.200 198.633 C 306.642 198.943,306.465 199.185,306.800 199.181 C 307.130 199.178,307.749 198.910,308.176 198.587 C 309.139 197.859,308.545 197.887,307.200 198.633 M55.300 201.614 C 52.532 205.104,52.395 205.534,53.700 206.638 C 54.599 207.399,54.599 207.399,53.900 206.569 C 52.849 205.320,52.979 204.982,55.835 201.559 C 57.283 199.821,58.318 198.414,58.135 198.431 C 57.951 198.448,56.675 199.881,55.300 201.614 M147.077 201.077 C 146.700 202.093,146.458 202.991,146.538 203.072 C 146.619 203.152,147.000 202.393,147.385 201.385 C 147.770 200.376,148.012 199.479,147.923 199.390 C 147.835 199.301,147.454 200.060,147.077 201.077 M227.600 199.598 C 228.588 199.916,232.289 200.135,231.967 199.856 C 231.875 199.777,230.630 199.614,229.200 199.494 C 227.640 199.363,227.000 199.405,227.600 199.598 M294.213 199.500 C 288.500 199.563,283.694 199.746,283.532 199.907 C 283.370 200.068,288.255 200.110,294.386 200.000 C 300.518 199.890,305.670 199.665,305.834 199.500 C 305.999 199.335,305.788 199.242,305.367 199.293 C 304.945 199.344,299.926 199.437,294.213 199.500 M233.400 200.400 C 233.840 200.589,234.470 200.744,234.800 200.744 C 235.178 200.744,235.104 200.617,234.600 200.400 C 234.160 200.211,233.530 200.056,233.200 200.056 C 232.822 200.056,232.896 200.183,233.400 200.400 M132.251 201.574 C 132.627 203.039,133.571 205.086,133.555 204.400 C 133.547 204.070,133.194 203.080,132.771 202.200 C 132.348 201.320,132.114 201.038,132.251 201.574 M197.645 201.200 C 197.653 201.530,198.006 202.520,198.429 203.400 C 198.852 204.280,199.086 204.562,198.949 204.026 C 198.573 202.561,197.629 200.514,197.645 201.200 M356.045 201.200 C 356.053 201.530,356.406 202.520,356.829 203.400 C 357.252 204.280,357.486 204.562,357.349 204.026 C 356.973 202.561,356.029 200.514,356.045 201.200 M318.526 203.342 C 317.850 204.301,316.601 205.596,315.749 206.220 C 313.651 207.759,313.212 208.195,314.358 207.604 C 315.760 206.881,318.490 204.259,319.323 202.835 C 320.364 201.056,319.954 201.316,318.526 203.342 M186.844 203.464 C 186.583 204.036,186.450 204.584,186.549 204.682 C 186.647 204.780,186.846 204.484,186.992 204.024 C 187.138 203.565,187.425 203.292,187.629 203.418 C 187.833 203.544,188.000 203.467,188.000 203.247 C 188.000 202.357,187.287 202.490,186.844 203.464 M213.604 202.509 C 213.597 202.997,216.861 206.407,217.775 206.867 C 218.229 207.096,217.933 206.718,217.117 206.027 C 216.302 205.336,215.179 204.192,214.622 203.485 C 214.065 202.778,213.607 202.339,213.604 202.509 M240.727 203.800 C 241.676 204.631,243.071 206.228,243.827 207.350 C 245.373 209.646,245.722 209.598,244.244 207.292 C 243.299 205.818,241.354 203.862,239.800 202.824 C 239.360 202.530,239.777 202.969,240.727 203.800 M345.244 203.464 C 344.983 204.036,344.850 204.584,344.949 204.682 C 345.047 204.780,345.246 204.484,345.392 204.024 C 345.538 203.565,345.825 203.292,346.029 203.418 C 346.233 203.544,346.400 203.467,346.400 203.247 C 346.400 202.357,345.687 202.490,345.244 203.464 M156.658 204.904 C 155.728 207.340,155.880 207.804,156.836 205.447 C 157.272 204.373,157.558 203.424,157.472 203.338 C 157.386 203.252,157.020 203.957,156.658 204.904 M175.077 205.877 C 174.700 206.893,174.458 207.791,174.538 207.872 C 174.619 207.952,175.000 207.193,175.385 206.185 C 175.770 205.176,176.012 204.279,175.923 204.190 C 175.835 204.101,175.454 204.860,175.077 205.877 M333.477 205.877 C 333.100 206.893,332.858 207.791,332.938 207.872 C 333.019 207.952,333.400 207.193,333.785 206.185 C 334.170 205.176,334.412 204.279,334.323 204.190 C 334.235 204.101,333.854 204.860,333.477 205.877 M218.800 207.396 C 218.800 207.670,221.249 208.884,221.432 208.701 C 221.519 208.614,220.962 208.244,220.195 207.878 C 219.428 207.512,218.800 207.295,218.800 207.396 M56.460 210.000 C 57.630 211.430,58.635 212.675,58.694 212.767 C 58.752 212.858,58.879 212.855,58.975 212.759 C 59.070 212.663,58.065 211.418,56.741 209.992 L 54.332 207.400 56.460 210.000 M112.045 208.400 C 112.053 208.730,112.406 209.720,112.829 210.600 C 113.252 211.480,113.486 211.762,113.349 211.226 C 112.973 209.761,112.029 207.714,112.045 208.400 M225.400 210.000 C 226.060 210.168,227.140 210.306,227.800 210.307 C 228.809 210.308,228.745 210.255,227.400 209.977 C 225.374 209.558,223.737 209.577,225.400 210.000 M312.000 210.084 C 312.000 210.516,313.215 213.200,313.411 213.200 C 313.521 213.200,313.333 212.534,312.993 211.721 C 312.393 210.286,312.000 209.638,312.000 210.084 M231.535 211.011 C 232.270 211.330,233.435 212.178,234.124 212.896 C 235.077 213.888,235.226 213.960,234.748 213.200 C 233.994 212.003,231.736 210.394,230.841 210.416 C 230.488 210.424,230.801 210.692,231.535 211.011 M245.656 210.800 C 245.656 211.130,245.811 211.760,246.000 212.200 C 246.217 212.704,246.344 212.778,246.344 212.400 C 246.344 212.070,246.189 211.440,246.000 211.000 C 245.783 210.496,245.656 210.422,245.656 210.800 M294.306 221.483 L 294.200 232.600 289.000 232.818 L 283.800 233.037 288.820 233.118 C 295.372 233.225,294.800 234.334,294.800 221.520 L 294.800 210.800 297.378 210.800 L 299.955 210.800 301.036 213.208 C 301.630 214.533,302.188 215.545,302.275 215.458 C 302.363 215.371,301.928 214.242,301.309 212.950 L 300.184 210.600 297.298 210.483 L 294.413 210.365 294.306 221.483 M83.877 213.077 C 83.500 214.093,83.258 214.991,83.338 215.072 C 83.419 215.152,83.800 214.393,84.185 213.385 C 84.570 212.376,84.812 211.479,84.723 211.390 C 84.635 211.301,84.254 212.060,83.877 213.077 M136.251 211.974 C 136.627 213.439,137.571 215.486,137.555 214.800 C 137.547 214.470,137.194 213.480,136.771 212.600 C 136.348 211.720,136.114 211.438,136.251 211.974 M43.980 213.900 L 43.021 215.000 43.999 214.100 L 44.978 213.200 46.522 214.900 L 48.065 216.600 46.584 214.700 C 44.835 212.455,45.154 212.553,43.980 213.900 M59.832 214.035 C 60.290 214.566,62.243 216.845,64.174 219.100 C 66.104 221.355,67.763 223.200,67.860 223.200 C 68.121 223.200,59.943 213.608,59.435 213.319 C 59.196 213.182,59.374 213.505,59.832 214.035 M246.540 216.400 C 246.540 218.270,246.609 219.035,246.693 218.100 C 246.777 217.165,246.777 215.635,246.693 214.700 C 246.609 213.765,246.540 214.530,246.540 216.400 M235.400 216.400 C 235.400 217.458,235.532 218.116,235.694 217.862 C 235.856 217.608,235.988 216.950,235.988 216.400 C 235.988 215.850,235.856 215.192,235.694 214.938 C 235.532 214.684,235.400 215.342,235.400 216.400 M42.186 215.791 C 41.974 216.095,40.656 217.616,39.259 219.172 C 37.861 220.727,36.807 222.000,36.916 222.000 C 37.253 222.000,42.919 215.585,42.740 215.406 C 42.647 215.314,42.398 215.487,42.186 215.791 M203.245 215.600 C 203.253 215.930,203.606 216.920,204.029 217.800 C 204.452 218.680,204.686 218.962,204.549 218.426 C 204.173 216.961,203.229 214.914,203.245 215.600 M314.434 215.400 C 314.434 215.620,314.778 216.430,315.200 217.200 C 315.622 217.970,315.966 218.420,315.966 218.200 C 315.966 217.980,315.622 217.170,315.200 216.400 C 314.778 215.630,314.434 215.180,314.434 215.400 M361.645 215.600 C 361.653 215.930,362.006 216.920,362.429 217.800 C 362.852 218.680,363.086 218.962,362.949 218.426 C 362.573 216.961,361.629 214.914,361.645 215.600 M52.849 222.812 C 55.526 226.119,57.899 228.937,58.123 229.076 C 58.347 229.214,56.296 226.522,53.565 223.092 C 50.834 219.663,48.461 216.844,48.291 216.828 C 48.122 216.813,50.173 219.505,52.849 222.812 M181.458 218.504 C 180.528 220.940,180.680 221.404,181.636 219.047 C 182.072 217.973,182.358 217.024,182.272 216.938 C 182.186 216.852,181.820 217.557,181.458 218.504 M339.858 218.504 C 338.928 220.940,339.080 221.404,340.036 219.047 C 340.472 217.973,340.758 217.024,340.672 216.938 C 340.586 216.852,340.220 217.557,339.858 218.504 M151.058 219.304 C 150.128 221.740,150.280 222.204,151.236 219.847 C 151.672 218.773,151.958 217.824,151.872 217.738 C 151.786 217.652,151.420 218.357,151.058 219.304 M303.234 217.800 C 303.234 218.020,303.578 218.830,304.000 219.600 C 304.422 220.370,304.766 220.820,304.766 220.600 C 304.766 220.380,304.422 219.570,304.000 218.800 C 303.578 218.030,303.234 217.580,303.234 217.800 M169.477 220.277 C 169.100 221.293,168.858 222.191,168.938 222.272 C 169.019 222.352,169.400 221.593,169.785 220.585 C 170.170 219.576,170.412 218.679,170.323 218.590 C 170.235 218.501,169.854 219.260,169.477 220.277 M327.877 220.277 C 327.500 221.293,327.258 222.191,327.338 222.272 C 327.419 222.352,327.800 221.593,328.185 220.585 C 328.570 219.576,328.812 218.679,328.723 218.590 C 328.635 218.501,328.254 219.260,327.877 220.277 M233.600 220.364 C 232.830 221.114,232.562 221.535,233.004 221.301 C 233.879 220.837,235.430 219.255,235.164 219.098 C 235.074 219.044,234.370 219.614,233.600 220.364 M193.851 220.774 C 194.227 222.239,195.171 224.286,195.155 223.600 C 195.147 223.270,194.794 222.280,194.371 221.400 C 193.948 220.520,193.714 220.238,193.851 220.774 M352.251 220.774 C 352.627 222.239,353.571 224.286,353.555 223.600 C 353.547 223.270,353.194 222.280,352.771 221.400 C 352.348 220.520,352.114 220.238,352.251 220.774 M316.816 220.452 C 316.792 220.832,318.833 225.200,319.035 225.200 C 319.132 225.200,318.961 224.602,318.656 223.872 C 317.958 222.202,316.837 220.118,316.816 220.452 M140.251 222.374 C 140.627 223.839,141.571 225.886,141.555 225.200 C 141.547 224.870,141.194 223.880,140.771 223.000 C 140.348 222.120,140.114 221.838,140.251 222.374 M230.600 222.000 L 229.400 222.305 230.476 222.353 C 231.068 222.379,231.664 222.220,231.800 222.000 C 231.936 221.780,231.992 221.621,231.924 221.647 C 231.856 221.673,231.260 221.832,230.600 222.000 M33.445 225.685 C 31.770 227.606,30.477 228.762,30.145 228.634 C 29.837 228.516,29.600 228.681,29.600 229.013 C 29.600 229.336,29.742 229.600,29.915 229.600 C 30.409 229.600,36.652 222.900,36.373 222.669 C 36.278 222.591,34.960 223.948,33.445 225.685 M117.645 222.800 C 117.653 223.130,118.006 224.120,118.429 225.000 C 118.852 225.880,119.086 226.162,118.949 225.626 C 118.573 224.161,117.629 222.114,117.645 222.800 M244.778 223.898 C 243.874 225.701,243.887 225.879,244.820 224.483 C 245.304 223.759,245.617 223.083,245.515 222.982 C 245.413 222.880,245.081 223.292,244.778 223.898 M306.207 224.279 C 306.807 225.714,307.200 226.362,307.200 225.916 C 307.200 225.484,305.985 222.800,305.789 222.800 C 305.679 222.800,305.867 223.466,306.207 224.279 M228.553 227.800 C 228.553 230.440,228.618 231.468,228.697 230.084 C 228.775 228.701,228.774 226.541,228.695 225.284 C 228.616 224.028,228.552 225.160,228.553 227.800 M70.060 226.000 C 71.230 227.430,72.235 228.675,72.294 228.767 C 72.352 228.858,72.479 228.855,72.575 228.759 C 72.670 228.663,71.665 227.418,70.341 225.992 L 67.932 223.400 70.060 226.000 M78.277 227.477 C 77.900 228.493,77.658 229.391,77.738 229.472 C 77.819 229.552,78.200 228.793,78.585 227.785 C 78.970 226.776,79.212 225.879,79.123 225.790 C 79.035 225.701,78.654 226.460,78.277 227.477 M241.421 228.271 C 240.112 229.504,239.392 230.322,239.821 230.087 C 240.580 229.673,244.348 225.986,243.983 226.015 C 243.882 226.023,242.729 227.038,241.421 228.271 M73.477 230.000 C 73.958 230.550,74.531 231.450,74.751 232.000 C 75.103 232.883,75.152 232.903,75.175 232.175 C 75.189 231.721,74.616 230.821,73.901 230.175 C 72.934 229.299,72.826 229.255,73.477 230.000 M59.600 231.200 C 60.297 232.080,60.957 232.800,61.067 232.800 C 61.177 232.800,60.697 232.080,60.000 231.200 C 59.303 230.320,58.643 229.600,58.533 229.600 C 58.423 229.600,58.903 230.320,59.600 231.200 M308.800 229.753 C 308.800 230.182,309.990 232.400,310.221 232.400 C 310.331 232.400,310.123 231.815,309.759 231.100 C 309.017 229.640,308.800 229.336,308.800 229.753 M120.846 231.688 L 120.800 232.777 115.500 232.901 L 110.200 233.025 115.513 233.113 C 121.118 233.205,121.533 233.071,121.080 231.323 C 120.956 230.845,120.877 230.969,120.846 231.688 M165.361 232.000 L 165.400 233.000 170.600 233.017 L 175.800 233.035 170.725 232.906 C 165.846 232.782,165.645 232.743,165.487 231.889 C 165.348 231.136,165.329 231.153,165.361 232.000 M321.721 231.600 L 321.800 232.600 316.200 232.817 L 310.600 233.035 316.000 233.111 C 321.976 233.196,322.803 232.981,322.095 231.530 L 321.641 230.600 321.721 231.600 M323.761 232.000 L 323.800 233.000 329.000 233.017 L 334.200 233.035 329.125 232.906 C 324.246 232.782,324.045 232.743,323.887 231.889 C 323.748 231.136,323.729 231.153,323.761 232.000 M88.266 232.171 C 88.079 232.661,87.016 232.800,82.717 232.901 L 77.400 233.025 82.651 233.113 C 87.658 233.196,89.682 232.748,88.706 231.773 C 88.592 231.659,88.394 231.838,88.266 232.171 M233.600 232.418 C 233.162 232.715,233.324 232.752,234.200 232.556 C 235.671 232.227,235.990 231.998,234.967 232.006 C 234.545 232.009,233.930 232.195,233.600 232.418 M204.000 232.800 L 198.600 233.036 203.876 233.118 C 207.054 233.167,209.251 233.041,209.400 232.800 C 209.536 232.580,209.592 232.437,209.524 232.482 C 209.456 232.527,206.970 232.670,204.000 232.800 M362.400 232.800 L 357.000 233.036 362.276 233.118 C 365.454 233.167,367.651 233.041,367.800 232.800 C 367.936 232.580,367.992 232.437,367.924 232.482 C 367.856 232.527,365.370 232.670,362.400 232.800 M64.700 233.098 C 66.515 233.172,69.485 233.172,71.300 233.098 C 73.115 233.023,71.630 232.963,68.000 232.963 C 64.370 232.963,62.885 233.023,64.700 233.098 M229.900 233.082 C 230.395 233.178,231.205 233.178,231.700 233.082 C 232.195 232.987,231.790 232.909,230.800 232.909 C 229.810 232.909,229.405 232.987,229.900 233.082 " stroke="none" fill="#575757" fill-rule="evenodd"></path><path id="path3" d="M30.267 177.067 C 29.872 177.462,29.942 228.800,30.338 228.800 C 30.524 228.800,31.014 228.395,31.427 227.900 C 31.841 227.405,31.923 227.225,31.609 227.500 C 31.296 227.775,30.896 228.000,30.720 228.000 C 30.145 228.000,30.324 177.297,30.900 177.065 C 31.179 176.952,31.209 176.849,30.967 176.832 C 30.728 176.814,30.413 176.920,30.267 177.067 M39.894 177.089 C 40.263 177.351,40.417 180.520,40.503 189.620 L 40.618 201.800 40.609 189.433 C 40.601 178.785,40.517 177.044,40.000 176.903 C 39.562 176.783,39.533 176.834,39.894 177.089 M98.223 177.689 C 97.880 178.178,97.607 178.763,97.616 178.989 C 97.625 179.215,97.907 178.893,98.243 178.273 C 98.773 177.295,98.942 177.216,99.527 177.673 C 100.131 178.146,100.144 178.128,99.651 177.500 C 98.962 176.621,98.971 176.620,98.223 177.689 M186.783 177.459 C 186.253 178.133,186.261 178.153,186.873 177.673 C 187.458 177.216,187.627 177.295,188.157 178.273 C 188.493 178.893,188.775 179.195,188.784 178.944 C 188.826 177.739,187.397 176.678,186.783 177.459 M225.023 177.160 C 224.595 177.328,225.855 177.395,227.823 177.309 C 232.685 177.098,233.322 176.897,229.200 176.875 C 227.330 176.864,225.450 176.993,225.023 177.160 M248.173 177.327 C 248.061 177.617,248.022 179.732,248.085 182.027 L 248.200 186.200 265.000 186.200 L 281.800 186.200 281.800 181.605 C 281.800 177.501,281.724 177.004,281.092 176.946 C 280.597 176.901,280.567 176.938,280.992 177.070 C 281.487 177.224,281.600 178.069,281.600 181.629 L 281.600 186.000 265.000 186.000 L 248.400 186.000 248.400 181.633 C 248.400 178.514,248.543 177.209,248.900 177.065 C 249.292 176.907,249.289 176.856,248.887 176.832 C 248.606 176.814,248.284 177.037,248.173 177.327 M283.774 177.324 C 283.663 177.613,283.624 179.908,283.686 182.424 L 283.800 187.000 293.900 187.011 L 304.000 187.021 294.000 186.904 L 284.000 186.786 284.000 182.026 C 284.000 178.593,284.139 177.210,284.500 177.065 C 284.892 176.907,284.889 176.856,284.487 176.832 C 284.206 176.814,283.884 177.036,283.774 177.324 M303.233 176.946 C 303.325 177.026,304.570 177.187,306.000 177.302 C 307.527 177.426,308.270 177.378,307.800 177.185 C 307.026 176.867,302.896 176.651,303.233 176.946 M345.183 177.459 C 344.653 178.133,344.661 178.153,345.273 177.673 C 345.858 177.216,346.027 177.295,346.557 178.273 C 346.893 178.893,347.175 179.195,347.184 178.944 C 347.226 177.739,345.797 176.678,345.183 177.459 M59.537 179.700 C 55.753 184.213,54.218 186.152,54.625 185.905 C 55.123 185.601,61.714 177.600,61.466 177.600 C 61.373 177.600,60.505 178.545,59.537 179.700 M314.411 179.860 C 314.955 180.223,316.040 181.078,316.823 181.760 C 317.605 182.442,317.368 182.145,316.295 181.100 C 315.222 180.055,314.137 179.200,313.883 179.200 C 313.629 179.200,313.867 179.497,314.411 179.860 M241.183 181.700 C 242.841 183.466,243.200 183.784,243.200 183.483 C 243.200 183.419,242.345 182.564,241.300 181.583 L 239.400 179.800 241.183 181.700 M216.175 182.100 L 215.000 183.400 216.300 182.225 C 217.015 181.579,217.600 180.994,217.600 180.925 C 217.600 180.616,217.270 180.888,216.175 182.100 M67.479 186.100 C 65.617 188.355,64.162 190.275,64.246 190.367 C 64.331 190.458,64.452 190.458,64.516 190.367 C 64.579 190.275,66.121 188.355,67.941 186.100 C 69.762 183.845,71.164 182.000,71.059 182.000 C 70.953 182.000,69.342 183.845,67.479 186.100 M227.907 187.090 C 228.626 187.179,229.706 187.177,230.307 187.086 C 230.908 186.995,230.320 186.922,229.000 186.924 C 227.680 186.926,227.188 187.001,227.907 187.090 M224.422 188.243 C 223.740 188.817,222.996 189.672,222.769 190.143 C 222.511 190.678,222.690 190.570,223.246 189.853 C 223.735 189.222,224.690 188.368,225.368 187.955 C 226.045 187.541,226.389 187.202,226.131 187.201 C 225.873 187.201,225.104 187.669,224.422 188.243 M234.138 188.680 C 234.544 189.157,235.121 190.234,235.420 191.074 C 235.720 191.913,235.973 192.276,235.982 191.880 C 236.006 190.922,235.029 189.079,234.126 188.378 C 233.443 187.847,233.444 187.866,234.138 188.680 M308.700 189.098 C 309.415 189.771,310.000 190.549,310.000 190.827 C 310.000 191.106,310.114 191.219,310.254 191.079 C 310.630 190.704,309.338 188.901,308.300 188.352 C 307.672 188.020,307.792 188.245,308.700 189.098 M245.721 191.200 L 245.800 193.000 240.938 193.000 C 238.263 193.000,236.159 193.135,236.261 193.300 C 236.364 193.465,238.485 193.600,240.975 193.600 C 246.228 193.600,246.628 193.390,246.026 190.953 L 245.642 189.400 245.721 191.200 M321.085 192.000 C 321.207 193.430,321.372 194.675,321.453 194.767 C 321.720 195.070,321.511 191.822,321.185 190.600 C 320.982 189.844,320.946 190.362,321.085 192.000 M48.035 193.686 C 46.624 195.469,45.648 196.818,45.865 196.684 C 46.527 196.274,51.278 190.398,50.928 190.422 C 50.747 190.434,49.446 191.903,48.035 193.686 M211.728 194.000 C 211.728 195.430,211.801 196.015,211.889 195.300 C 211.978 194.585,211.978 193.415,211.889 192.700 C 211.801 191.985,211.728 192.570,211.728 194.000 M222.124 193.800 C 222.126 195.120,222.201 195.612,222.290 194.893 C 222.379 194.174,222.377 193.094,222.286 192.493 C 222.195 191.892,222.122 192.480,222.124 193.800 M310.520 193.600 C 310.520 194.810,310.595 195.305,310.687 194.700 C 310.778 194.095,310.778 193.105,310.687 192.500 C 310.595 191.895,310.520 192.390,310.520 193.600 M310.000 196.373 C 310.000 196.651,309.415 197.429,308.700 198.102 C 307.792 198.955,307.672 199.180,308.300 198.848 C 309.338 198.299,310.630 196.496,310.254 196.121 C 310.114 195.981,310.000 196.094,310.000 196.373 M56.276 199.900 C 54.847 201.605,53.751 203.075,53.839 203.167 C 53.928 203.258,54.050 203.258,54.111 203.167 C 54.172 203.075,55.354 201.605,56.738 199.900 C 58.123 198.195,59.170 196.800,59.065 196.800 C 58.960 196.800,57.705 198.195,56.276 199.900 M260.092 197.268 C 259.715 197.645,259.622 201.791,259.694 214.980 L 259.787 232.200 259.994 214.800 L 260.200 197.400 264.968 197.287 C 268.500 197.203,269.830 197.307,270.099 197.687 C 270.375 198.078,270.422 198.058,270.298 197.600 C 270.080 196.798,260.861 196.499,260.092 197.268 M42.295 200.800 C 41.505 201.680,40.995 202.400,41.162 202.400 C 41.329 202.400,42.045 201.680,42.752 200.800 C 43.459 199.920,43.969 199.200,43.884 199.200 C 43.800 199.200,43.085 199.920,42.295 200.800 M226.000 199.582 C 226.330 199.805,226.945 199.991,227.367 199.994 C 228.390 200.002,228.071 199.773,226.600 199.444 C 225.724 199.248,225.562 199.285,226.000 199.582 M305.600 199.600 C 304.776 199.864,304.741 199.926,305.400 199.954 C 305.840 199.973,306.470 199.813,306.800 199.600 C 307.501 199.147,307.014 199.147,305.600 199.600 M229.633 200.144 C 229.725 200.223,230.700 200.391,231.800 200.518 C 233.087 200.667,233.515 200.626,233.000 200.403 C 232.236 200.072,229.286 199.845,229.633 200.144 M283.696 216.267 C 283.786 230.327,283.881 232.556,284.400 232.697 C 284.853 232.821,284.876 232.773,284.491 232.501 C 284.090 232.218,284.005 228.724,284.091 216.071 C 284.151 207.232,284.063 200.000,283.896 200.000 C 283.728 200.000,283.638 207.320,283.696 216.267 M319.407 201.178 C 319.261 201.639,318.497 202.867,317.710 203.908 C 316.902 204.976,316.672 205.452,317.181 205.000 C 318.245 204.057,320.190 200.857,319.885 200.552 C 319.768 200.435,319.553 200.717,319.407 201.178 M98.400 201.800 C 98.400 201.910,98.760 202.360,99.200 202.800 C 100.099 203.699,100.257 203.372,99.443 202.300 C 98.936 201.631,98.400 201.375,98.400 201.800 M186.896 202.395 C 186.171 203.555,186.289 203.711,187.200 202.800 C 188.048 201.952,188.193 201.600,187.696 201.600 C 187.529 201.600,187.169 201.958,186.896 202.395 M213.601 201.833 C 213.602 202.035,214.336 203.010,215.234 204.000 L 216.865 205.800 215.347 203.800 C 214.511 202.700,213.777 201.725,213.714 201.633 C 213.651 201.542,213.600 201.632,213.601 201.833 M345.296 202.395 C 344.571 203.555,344.689 203.711,345.600 202.800 C 346.448 201.952,346.593 201.600,346.096 201.600 C 345.929 201.600,345.569 201.958,345.296 202.395 M52.880 204.080 C 52.616 204.344,52.400 204.851,52.400 205.206 C 52.400 205.834,56.989 211.600,57.489 211.600 C 57.627 211.600,57.382 211.195,56.944 210.700 C 52.655 205.845,52.249 205.111,53.280 204.080 C 53.544 203.816,53.670 203.600,53.560 203.600 C 53.450 203.600,53.144 203.816,52.880 204.080 M242.168 205.700 C 243.009 206.745,243.777 207.600,243.875 207.600 C 244.192 207.600,242.517 205.426,241.563 204.600 C 241.055 204.160,241.328 204.655,242.168 205.700 M314.297 206.766 C 312.698 207.791,312.403 208.206,313.800 207.466 C 315.476 206.577,316.271 206.008,315.800 206.035 C 315.580 206.048,314.904 206.377,314.297 206.766 M223.600 209.182 C 223.930 209.405,224.545 209.591,224.967 209.594 C 225.990 209.602,225.671 209.373,224.200 209.044 C 223.324 208.848,223.162 208.885,223.600 209.182 M226.833 209.744 C 226.925 209.823,227.990 209.989,229.200 210.112 C 230.569 210.251,231.098 210.208,230.600 209.996 C 229.833 209.670,226.489 209.447,226.833 209.744 M232.200 210.654 C 232.420 210.848,233.229 211.545,233.999 212.203 L 235.397 213.400 234.399 212.263 C 233.849 211.638,233.040 210.941,232.600 210.714 C 232.160 210.488,231.980 210.461,232.200 210.654 M294.093 221.267 C 294.022 229.674,293.880 232.382,293.500 232.535 C 293.108 232.693,293.111 232.744,293.513 232.768 C 294.373 232.821,294.417 232.153,294.300 220.994 L 294.186 210.200 294.093 221.267 M57.600 212.125 C 57.600 212.194,58.173 212.779,58.874 213.425 L 60.149 214.600 59.174 213.322 C 58.347 212.237,57.600 211.669,57.600 212.125 M245.800 216.600 C 245.800 219.114,245.922 220.862,246.072 220.485 C 246.221 220.108,246.344 218.360,246.344 216.600 C 246.344 214.840,246.221 213.092,246.072 212.715 C 245.922 212.338,245.800 214.086,245.800 216.600 M43.181 214.300 C 39.210 218.520,38.248 219.600,38.463 219.600 C 38.587 219.600,40.168 217.980,41.978 216.000 C 43.788 214.020,45.201 212.400,45.119 212.400 C 45.037 212.400,44.165 213.255,43.181 214.300 M312.834 213.000 C 312.834 213.220,313.178 214.030,313.600 214.800 C 314.022 215.570,314.366 216.020,314.366 215.800 C 314.366 215.580,314.022 214.770,313.600 214.000 C 313.178 213.230,312.834 212.780,312.834 213.000 M48.841 217.287 C 50.689 219.601,52.268 221.435,52.351 221.363 C 52.527 221.210,46.476 213.694,45.881 213.326 C 45.662 213.191,46.994 214.973,48.841 217.287 M60.000 214.925 C 60.000 214.994,60.585 215.579,61.300 216.225 L 62.600 217.400 61.425 216.100 C 60.330 214.888,60.000 214.616,60.000 214.925 M62.400 217.725 C 62.400 217.794,62.985 218.379,63.700 219.025 L 65.000 220.200 63.825 218.900 C 62.730 217.688,62.400 217.416,62.400 217.725 M235.422 218.729 C 235.285 219.164,234.697 219.993,234.118 220.573 C 233.496 221.195,233.334 221.523,233.724 221.374 C 234.459 221.092,236.210 218.476,235.882 218.149 C 235.767 218.034,235.560 218.295,235.422 218.729 M36.418 221.734 L 35.037 223.400 36.718 221.819 C 37.643 220.949,38.400 220.184,38.400 220.119 C 38.400 219.659,37.594 220.316,36.418 221.734 M67.792 223.900 C 69.476 225.935,70.949 227.600,71.064 227.600 C 71.318 227.600,68.730 224.486,66.410 222.000 C 65.486 221.010,66.109 221.865,67.792 223.900 M229.235 222.957 C 228.929 223.326,228.811 225.050,228.886 228.057 L 229.000 232.600 230.695 232.723 C 231.627 232.790,232.678 232.684,233.031 232.487 C 233.442 232.257,232.867 232.195,231.423 232.315 L 229.174 232.501 229.287 227.768 C 229.398 223.101,229.414 223.031,230.400 222.757 C 231.283 222.512,231.300 222.475,230.549 222.440 C 230.081 222.418,229.490 222.651,229.235 222.957 M33.381 225.300 L 31.800 227.000 33.500 225.419 C 34.435 224.549,35.200 223.784,35.200 223.719 C 35.200 223.416,34.852 223.719,33.381 225.300 M318.434 225.000 C 318.434 225.220,318.778 226.030,319.200 226.800 C 319.622 227.570,319.966 228.020,319.966 227.800 C 319.966 227.580,319.622 226.770,319.200 226.000 C 318.778 225.230,318.434 224.780,318.434 225.000 M307.234 225.400 C 307.234 225.620,307.578 226.430,308.000 227.200 C 308.422 227.970,308.766 228.420,308.766 228.200 C 308.766 227.980,308.422 227.170,308.000 226.400 C 307.578 225.630,307.234 225.180,307.234 225.400 M241.775 227.700 L 240.600 229.000 241.900 227.825 C 242.615 227.179,243.200 226.594,243.200 226.525 C 243.200 226.216,242.870 226.488,241.775 227.700 M71.200 228.125 C 71.200 228.194,71.773 228.779,72.474 229.425 L 73.749 230.600 72.774 229.322 C 71.947 228.237,71.200 227.669,71.200 228.125 M60.010 231.073 C 60.886 232.198,61.979 233.020,62.188 232.709 C 62.228 232.649,61.532 231.970,60.641 231.200 L 59.020 229.800 60.010 231.073 M165.843 230.633 C 165.380 231.838,165.584 232.800,166.300 232.794 C 166.856 232.789,166.886 232.716,166.446 232.437 C 166.079 232.204,165.980 231.733,166.153 231.043 C 166.440 229.901,166.230 229.623,165.843 230.633 M324.243 230.633 C 323.780 231.838,323.984 232.800,324.700 232.794 C 325.256 232.789,325.286 232.716,324.846 232.437 C 324.479 232.204,324.380 231.733,324.553 231.043 C 324.840 229.901,324.630 229.623,324.243 230.633 M73.996 231.330 C 74.468 231.954,74.464 232.114,73.974 232.424 C 73.614 232.652,73.577 232.790,73.876 232.794 C 74.741 232.805,74.907 231.935,74.169 231.262 C 73.487 230.639,73.476 230.643,73.996 231.330 M144.146 231.333 C 144.286 231.736,144.400 232.141,144.400 232.233 C 144.400 232.717,145.950 232.306,146.157 231.767 C 146.558 230.722,146.434 230.602,145.800 231.424 C 145.207 232.191,145.192 232.191,144.546 231.400 C 143.970 230.695,143.922 230.687,144.146 231.333 " stroke="none" fill="#848484" fill-rule="evenodd"></path><path id="path4" d="M29.788 203.000 C 29.788 217.080,29.839 222.782,29.900 215.671 C 29.961 208.560,29.961 197.040,29.900 190.071 C 29.838 183.102,29.788 188.920,29.788 203.000 M283.270 182.076 C 283.231 184.648,283.335 186.837,283.500 186.940 C 283.665 187.042,283.752 185.658,283.692 183.863 C 283.498 177.983,283.341 177.318,283.270 182.076 M283.382 216.200 C 283.382 225.000,283.435 228.543,283.500 224.073 C 283.564 219.604,283.564 212.404,283.499 208.073 C 283.435 203.743,283.382 207.400,283.382 216.200 " stroke="none" fill="#7c7c7c" fill-rule="evenodd"></path></g></svg>